<svg xmlns="http://www.w3.org/2000/svg" width="512" height="512" viewBox="0 0 512 512">
  <image href="mexc-logo.png" width="512" height="512" preserveAspectRatio="xMidYMid meet" />
</svg>

<svg xmlns="http://www.w3.org/2000/svg" width="128" height="128" viewBox="0 0 128 128" role="img" aria-label="MEXC">
  <defs>
    <linearGradient id="g" x1="0" y1="0" x2="1" y2="1">
      <stop offset="0" stop-color="#2F7CF6"/>
      <stop offset="1" stop-color="#21B053"/>
    </linearGradient>
  </defs>
  <rect x="6" y="6" width="116" height="116" rx="28" fill="#131722" stroke="rgba(255,255,255,0.08)" stroke-width="2"/>
  <path d="M34 84V44h10l14 22 14-22h10v40H82V62L72 78h-8L54 62v22H34z" fill="url(#g)"/>
  <path d="M92 84V44h8c12 0 20 7 20 20s-8 20-20 20h-8zm10-10h-0.5c6.5 0 10.5-3.5 10.5-10s-4-10-10.5-10H102v20z" fill="#E6EDF7" opacity="0.9"/>
</svg>
